STARTFONT 2.1
FONT -FontForge-Indie Flower-Book-R-Normal--14-140-72-72-P-64-ISO10646-1
SIZE 14 72 72
FONTBOUNDINGBOX 17 20 -2 -7
COMMENT "Generated by fontforge, http://fontforge.sourceforge.net"
COMMENT "Copyright (c) 2010, Kimberly Geswein (kimberlygeswein.com)"
STARTPROPERTIES 39
FOUNDRY "FontForge"
FAMILY_NAME "Indie Flower"
WEIGHT_NAME "Book"
SLANT "R"
SETWIDTH_NAME "Normal"
ADD_STYLE_NAME ""
PIXEL_SIZE 14
POINT_SIZE 140
RESOLUTION_X 72
RESOLUTION_Y 72
SPACING "P"
AVERAGE_WIDTH 64
CHARSET_REGISTRY "ISO10646"
CHARSET_ENCODING "1"
FONTNAME_REGISTRY ""
CHARSET_COLLECTIONS "ISO8859-2 ISO8859-9 ISO8859-4 ISO10646-1"
FONT_NAME "IndieFlower"
FACE_NAME "Indie Flower"
COPYRIGHT "Copyright (c) 2010, Kimberly Geswein (kimberlygeswein.com)"
FONT_VERSION "1.001 2010"
FONT_ASCENT 11
FONT_DESCENT 3
UNDERLINE_POSITION -1
UNDERLINE_THICKNESS 1
X_HEIGHT 4
CAP_HEIGHT 6
RAW_ASCENT 799
RAW_DESCENT 200
NORM_SPACE 5
RELATIVE_WEIGHT 40
RELATIVE_SETWIDTH 50
SUPERSCRIPT_X 0
SUPERSCRIPT_Y 6
SUPERSCRIPT_SIZE 9
SUBSCRIPT_X 0
SUBSCRIPT_Y 1
SUBSCRIPT_SIZE 9
AVG_LOWERCASE_WIDTH 62
AVG_UPPERCASE_WIDTH 75
ENDPROPERTIES
CHARS 356
STARTCHAR space
ENCODING 32
SWIDTH 375 0
DWIDTH 5 0
BBX 1 1 0 0
BITMAP
00
ENDCHAR
STARTCHAR exclam
ENCODING 33
SWIDTH 149 0
DWIDTH 2 0
BBX 2 12 0 0
BITMAP
80
80
80
80
80
80
80
80
00
00
00
C0
ENDCHAR
STARTCHAR quotedbl
ENCODING 34
SWIDTH 234 0
DWIDTH 3 0
BBX 3 4 0 7
BITMAP
A0
A0
A0
60
ENDCHAR
STARTCHAR numbersign
ENCODING 35
SWIDTH 768 0
DWIDTH 11 0
BBX 10 7 0 0
BITMAP
0A00
0A00
1FC0
EA00
1FC0
6A00
0300
ENDCHAR
STARTCHAR dollar
ENCODING 36
SWIDTH 581 0
DWIDTH 8 0
BBX 8 13 0 0
BITMAP
0C
0C
0C
3E
34
14
1C
1A
19
D9
39
1E
18
ENDCHAR
STARTCHAR percent
ENCODING 37
SWIDTH 636 0
DWIDTH 9 0
BBX 9 9 0 0
BITMAP
0200
4300
B400
9800
6800
1300
1480
2500
2600
ENDCHAR
STARTCHAR ampersand
ENCODING 38
SWIDTH 457 0
DWIDTH 6 0
BBX 6 10 0 0
BITMAP
20
30
30
20
2C
28
68
90
A8
E8
ENDCHAR
STARTCHAR quotesingle
ENCODING 39
SWIDTH 102 0
DWIDTH 1 0
BBX 1 3 0 7
BITMAP
80
80
80
ENDCHAR
STARTCHAR parenleft
ENCODING 40
SWIDTH 421 0
DWIDTH 6 0
BBX 6 9 0 -1
BITMAP
1C
20
40
40
80
80
80
40
30
ENDCHAR
STARTCHAR parenright
ENCODING 41
SWIDTH 290 0
DWIDTH 4 0
BBX 4 9 0 -1
BITMAP
60
20
10
10
10
20
20
40
80
ENDCHAR
STARTCHAR asterisk
ENCODING 42
SWIDTH 412 0
DWIDTH 6 0
BBX 5 6 0 3
BITMAP
08
68
38
D0
58
10
ENDCHAR
STARTCHAR plus
ENCODING 43
SWIDTH 459 0
DWIDTH 6 0
BBX 6 6 0 0
BITMAP
20
20
38
D4
10
10
ENDCHAR
STARTCHAR comma
ENCODING 44
SWIDTH 130 0
DWIDTH 2 0
BBX 1 5 0 -3
BITMAP
80
80
80
80
80
ENDCHAR
STARTCHAR hyphen
ENCODING 45
SWIDTH 375 0
DWIDTH 5 0
BBX 5 1 0 3
BITMAP
F8
ENDCHAR
STARTCHAR period
ENCODING 46
SWIDTH 204 0
DWIDTH 3 0
BBX 1 3 1 0
BITMAP
80
80
80
ENDCHAR
STARTCHAR slash
ENCODING 47
SWIDTH 309 0
DWIDTH 4 0
BBX 4 11 0 0
BITMAP
10
10
10
10
20
20
20
40
40
80
80
ENDCHAR
STARTCHAR zero
ENCODING 48
SWIDTH 430 0
DWIDTH 6 0
BBX 6 6 0 0
BITMAP
30
48
84
84
88
78
ENDCHAR
STARTCHAR one
ENCODING 49
SWIDTH 318 0
DWIDTH 4 0
BBX 4 8 0 0
BITMAP
10
10
30
50
D0
10
20
20
ENDCHAR
STARTCHAR two
ENCODING 50
SWIDTH 497 0
DWIDTH 7 0
BBX 7 8 0 0
BITMAP
08
14
04
04
04
04
E8
7E
ENDCHAR
STARTCHAR three
ENCODING 51
SWIDTH 430 0
DWIDTH 6 0
BBX 6 7 0 0
BITMAP
F8
08
70
18
08
C4
38
ENDCHAR
STARTCHAR four
ENCODING 52
SWIDTH 412 0
DWIDTH 6 0
BBX 6 8 0 0
BITMAP
40
80
8C
88
58
68
08
08
ENDCHAR
STARTCHAR five
ENCODING 53
SWIDTH 571 0
DWIDTH 8 0
BBX 8 9 0 0
BITMAP
1F
20
20
38
04
02
82
82
7C
ENDCHAR
STARTCHAR six
ENCODING 54
SWIDTH 440 0
DWIDTH 6 0
BBX 6 8 0 0
BITMAP
1C
20
40
B0
C8
84
84
78
ENDCHAR
STARTCHAR seven
ENCODING 55
SWIDTH 412 0
DWIDTH 6 0
BBX 6 8 0 0
BITMAP
80
70
10
10
7C
10
10
20
ENDCHAR
STARTCHAR eight
ENCODING 56
SWIDTH 375 0
DWIDTH 5 0
BBX 5 8 0 0
BITMAP
70
90
A0
60
50
88
48
38
ENDCHAR
STARTCHAR nine
ENCODING 57
SWIDTH 300 0
DWIDTH 4 0
BBX 4 8 0 0
BITMAP
60
90
90
50
30
10
10
10
ENDCHAR
STARTCHAR colon
ENCODING 58
SWIDTH 84 0
DWIDTH 1 0
BBX 1 4 0 1
BITMAP
80
00
00
80
ENDCHAR
STARTCHAR semicolon
ENCODING 59
SWIDTH 128 0
DWIDTH 2 0
BBX 1 8 0 -3
BITMAP
80
00
00
80
80
80
80
80
ENDCHAR
STARTCHAR less
ENCODING 60
SWIDTH 487 0
DWIDTH 7 0
BBX 6 6 0 0
BITMAP
04
08
30
40
E0
1C
ENDCHAR
STARTCHAR equal
ENCODING 61
SWIDTH 524 0
DWIDTH 7 0
BBX 7 3 0 2
BITMAP
FE
00
FE
ENDCHAR
STARTCHAR greater
ENCODING 62
SWIDTH 403 0
DWIDTH 6 0
BBX 6 6 0 0
BITMAP
C0
3C
08
10
20
C0
ENDCHAR
STARTCHAR question
ENCODING 63
SWIDTH 272 0
DWIDTH 4 0
BBX 4 12 0 0
BITMAP
E0
20
10
20
20
40
40
20
00
00
00
20
ENDCHAR
STARTCHAR at
ENCODING 64
SWIDTH 815 0
DWIDTH 11 0
BBX 11 13 0 0
BITMAP
0800
1700
60C0
4020
8720
88A0
9120
9120
9140
4E80
2000
1000
0FE0
ENDCHAR
STARTCHAR A
ENCODING 65
SWIDTH 562 0
DWIDTH 8 0
BBX 8 11 0 0
BITMAP
18
64
44
82
82
82
7A
86
82
43
42
ENDCHAR
STARTCHAR B
ENCODING 66
SWIDTH 741 0
DWIDTH 10 0
BBX 10 10 0 0
BITMAP
1800
F600
1200
1200
1E00
1100
10C0
0840
1840
0F80
ENDCHAR
STARTCHAR C
ENCODING 67
SWIDTH 515 0
DWIDTH 7 0
BBX 7 9 0 0
BITMAP
1C
28
40
80
80
80
80
40
7E
ENDCHAR
STARTCHAR D
ENCODING 68
SWIDTH 741 0
DWIDTH 10 0
BBX 10 9 0 0
BITMAP
7800
8E00
0980
0880
0840
0840
0440
0880
1F00
ENDCHAR
STARTCHAR E
ENCODING 69
SWIDTH 524 0
DWIDTH 7 0
BBX 7 9 0 0
BITMAP
7C
80
80
84
F8
80
80
80
7E
ENDCHAR
STARTCHAR F
ENCODING 70
SWIDTH 514 0
DWIDTH 7 0
BBX 9 8 0 0
BITMAP
FF00
2080
2000
2800
7400
2000
2000
3000
ENDCHAR
STARTCHAR G
ENCODING 71
SWIDTH 571 0
DWIDTH 8 0
BBX 8 8 0 -1
BITMAP
1E
20
40
9E
82
42
3E
01
ENDCHAR
STARTCHAR H
ENCODING 72
SWIDTH 524 0
DWIDTH 7 0
BBX 7 9 0 0
BITMAP
86
84
84
84
5C
E2
42
42
42
ENDCHAR
STARTCHAR I
ENCODING 73
SWIDTH 167 0
DWIDTH 2 0
BBX 2 8 0 0
BITMAP
80
80
80
40
40
40
40
40
ENDCHAR
STARTCHAR J
ENCODING 74
SWIDTH 439 0
DWIDTH 6 0
BBX 6 10 0 0
BITMAP
08
08
08
04
04
84
84
44
24
18
ENDCHAR
STARTCHAR K
ENCODING 75
SWIDTH 468 0
DWIDTH 7 0
BBX 6 8 0 0
BITMAP
98
B0
A0
40
40
A0
58
44
ENDCHAR
STARTCHAR L
ENCODING 76
SWIDTH 346 0
DWIDTH 5 0
BBX 5 8 0 0
BITMAP
80
80
80
80
80
80
80
78
ENDCHAR
STARTCHAR M
ENCODING 77
SWIDTH 534 0
DWIDTH 7 0
BBX 7 9 0 0
BITMAP
84
46
44
7C
42
42
42
42
42
ENDCHAR
STARTCHAR N
ENCODING 78
SWIDTH 609 0
DWIDTH 9 0
BBX 8 8 0 0
BITMAP
80
82
42
41
A1
A1
91
8E
ENDCHAR
STARTCHAR O
ENCODING 79
SWIDTH 609 0
DWIDTH 9 0
BBX 8 7 0 0
BITMAP
30
4C
82
81
81
41
3E
ENDCHAR
STARTCHAR P
ENCODING 80
SWIDTH 627 0
DWIDTH 9 0
BBX 9 8 0 0
BITMAP
FE00
9100
1080
1100
1F00
1000
0800
0800
ENDCHAR
STARTCHAR Q
ENCODING 81
SWIDTH 642 0
DWIDTH 9 0
BBX 9 10 0 -2
BITMAP
1000
6C00
8600
8900
8080
8880
4500
3E00
0100
0080
ENDCHAR
STARTCHAR R
ENCODING 82
SWIDTH 579 0
DWIDTH 8 0
BBX 8 10 0 -1
BITMAP
78
86
42
46
38
20
30
28
26
01
ENDCHAR
STARTCHAR S
ENCODING 83
SWIDTH 627 0
DWIDTH 9 0
BBX 8 8 0 0
BITMAP
3E
21
20
18
06
81
41
3F
ENDCHAR
STARTCHAR T
ENCODING 84
SWIDTH 581 0
DWIDTH 8 0
BBX 9 8 0 0
BITMAP
FF80
0800
0800
0800
0800
0400
0400
0400
ENDCHAR
STARTCHAR U
ENCODING 85
SWIDTH 571 0
DWIDTH 8 0
BBX 8 8 0 0
BITMAP
40
84
82
82
82
42
47
39
ENDCHAR
STARTCHAR V
ENCODING 86
SWIDTH 421 0
DWIDTH 6 0
BBX 6 7 0 0
BITMAP
84
48
48
28
28
10
10
ENDCHAR
STARTCHAR W
ENCODING 87
SWIDTH 703 0
DWIDTH 10 0
BBX 10 7 0 0
BITMAP
8100
8080
8080
8880
8840
5480
6300
ENDCHAR
STARTCHAR X
ENCODING 88
SWIDTH 534 0
DWIDTH 7 0
BBX 7 8 0 -1
BITMAP
42
24
18
10
28
48
84
80
ENDCHAR
STARTCHAR Y
ENCODING 89
SWIDTH 403 0
DWIDTH 6 0
BBX 5 9 0 0
BITMAP
88
88
48
38
10
10
10
10
10
ENDCHAR
STARTCHAR Z
ENCODING 90
SWIDTH 571 0
DWIDTH 8 0
BBX 8 9 0 0
BITMAP
70
88
04
04
1E
68
10
20
3F
ENDCHAR
STARTCHAR bracketleft
ENCODING 91
SWIDTH 477 0
DWIDTH 7 0
BBX 8 11 0 -1
BITMAP
0C
70
80
40
40
40
40
40
40
40
3F
ENDCHAR
STARTCHAR backslash
ENCODING 92
SWIDTH 430 0
DWIDTH 6 0
BBX 6 8 0 0
BITMAP
80
80
40
20
10
08
08
04
ENDCHAR
STARTCHAR bracketright
ENCODING 93
SWIDTH 430 0
DWIDTH 6 0
BBX 6 13 0 -1
BITMAP
C0
38
08
08
08
08
08
08
04
04
04
04
7C
ENDCHAR
STARTCHAR asciicircum
ENCODING 94
SWIDTH 375 0
DWIDTH 5 0
BBX 3 3 1 7
BITMAP
40
A0
A0
ENDCHAR
STARTCHAR underscore
ENCODING 95
SWIDTH 656 0
DWIDTH 9 0
BBX 9 1 0 0
BITMAP
FF80
ENDCHAR
STARTCHAR grave
ENCODING 96
SWIDTH 172 0
DWIDTH 2 0
BBX 2 2 0 6
BITMAP
80
40
ENDCHAR
STARTCHAR a
ENCODING 97
SWIDTH 505 0
DWIDTH 7 0
BBX 7 7 0 0
BITMAP
30
08
04
7C
82
82
7C
ENDCHAR
STARTCHAR b
ENCODING 98
SWIDTH 497 0
DWIDTH 7 0
BBX 7 9 0 0
BITMAP
80
80
80
80
70
4C
42
42
3C
ENDCHAR
STARTCHAR c
ENCODING 99
SWIDTH 449 0
DWIDTH 6 0
BBX 6 6 0 0
BITMAP
38
48
80
80
40
7C
ENDCHAR
STARTCHAR d
ENCODING 100
SWIDTH 524 0
DWIDTH 7 0
BBX 7 10 0 0
BITMAP
08
04
04
04
76
4E
86
86
4A
70
ENDCHAR
STARTCHAR e
ENCODING 101
SWIDTH 515 0
DWIDTH 7 0
BBX 7 7 0 0
BITMAP
78
88
88
F0
80
40
3E
ENDCHAR
STARTCHAR f
ENCODING 102
SWIDTH 376 0
DWIDTH 5 0
BBX 6 10 0 0
BITMAP
18
24
40
40
40
60
B8
20
10
10
ENDCHAR
STARTCHAR g
ENCODING 103
SWIDTH 366 0
DWIDTH 5 0
BBX 7 13 -2 -7
BITMAP
0C
14
22
22
26
1A
02
02
02
82
82
62
1C
ENDCHAR
STARTCHAR h
ENCODING 104
SWIDTH 427 0
DWIDTH 6 0
BBX 5 10 0 0
BITMAP
80
80
80
80
70
88
48
48
48
48
ENDCHAR
STARTCHAR i
ENCODING 105
SWIDTH 174 0
DWIDTH 2 0
BBX 2 8 0 0
BITMAP
80
00
40
40
40
40
40
40
ENDCHAR
STARTCHAR j
ENCODING 106
SWIDTH 200 0
DWIDTH 3 0
BBX 5 14 -2 -6
BITMAP
20
00
10
10
10
10
08
08
08
88
88
48
68
38
ENDCHAR
STARTCHAR k
ENCODING 107
SWIDTH 403 0
DWIDTH 6 0
BBX 6 9 0 0
BITMAP
80
80
80
90
A0
40
40
60
9C
ENDCHAR
STARTCHAR l
ENCODING 108
SWIDTH 120 0
DWIDTH 2 0
BBX 1 8 0 0
BITMAP
80
80
80
80
80
80
80
80
ENDCHAR
STARTCHAR m
ENCODING 109
SWIDTH 750 0
DWIDTH 11 0
BBX 10 6 0 0
BITMAP
2380
DC40
8C40
8840
8440
8040
ENDCHAR
STARTCHAR n
ENCODING 110
SWIDTH 459 0
DWIDTH 6 0
BBX 6 6 0 0
BITMAP
38
C8
84
84
44
44
ENDCHAR
STARTCHAR o
ENCODING 111
SWIDTH 487 0
DWIDTH 7 0
BBX 6 6 0 0
BITMAP
38
44
84
84
84
78
ENDCHAR
STARTCHAR p
ENCODING 112
SWIDTH 520 0
DWIDTH 7 0
BBX 7 10 0 -5
BITMAP
38
46
82
E2
DC
40
40
40
40
60
ENDCHAR
STARTCHAR q
ENCODING 113
SWIDTH 412 0
DWIDTH 6 0
BBX 5 11 0 -4
BITMAP
38
48
88
88
88
48
38
08
08
08
08
ENDCHAR
STARTCHAR r
ENCODING 114
SWIDTH 346 0
DWIDTH 5 0
BBX 5 6 0 0
BITMAP
F8
80
80
80
40
40
ENDCHAR
STARTCHAR s
ENCODING 115
SWIDTH 514 0
DWIDTH 7 0
BBX 7 6 0 0
BITMAP
78
88
70
0E
82
7C
ENDCHAR
STARTCHAR t
ENCODING 116
SWIDTH 328 0
DWIDTH 5 0
BBX 5 9 0 0
BITMAP
20
20
20
F8
20
20
20
20
20
ENDCHAR
STARTCHAR u
ENCODING 117
SWIDTH 501 0
DWIDTH 7 0
BBX 7 6 0 1
BITMAP
80
84
84
84
4C
32
ENDCHAR
STARTCHAR v
ENCODING 118
SWIDTH 389 0
DWIDTH 5 0
BBX 5 5 0 0
BITMAP
88
48
50
30
20
ENDCHAR
STARTCHAR w
ENCODING 119
SWIDTH 656 0
DWIDTH 9 0
BBX 9 6 0 0
BITMAP
8000
8100
8880
8880
4C80
7300
ENDCHAR
STARTCHAR x
ENCODING 120
SWIDTH 448 0
DWIDTH 6 0
BBX 6 6 0 -1
BITMAP
8C
50
20
58
88
04
ENDCHAR
STARTCHAR y
ENCODING 121
SWIDTH 487 0
DWIDTH 7 0
BBX 7 13 0 -7
BITMAP
84
84
84
44
46
3A
02
02
02
04
44
64
18
ENDCHAR
STARTCHAR z
ENCODING 122
SWIDTH 459 0
DWIDTH 6 0
BBX 6 7 0 0
BITMAP
F0
08
10
78
20
44
78
ENDCHAR
STARTCHAR braceleft
ENCODING 123
SWIDTH 393 0
DWIDTH 6 0
BBX 6 14 0 -1
BITMAP
10
68
40
80
80
40
30
28
C8
10
20
40
40
7C
ENDCHAR
STARTCHAR bar
ENCODING 124
SWIDTH 149 0
DWIDTH 2 0
BBX 2 9 0 0
BITMAP
80
80
80
40
40
40
40
40
40
ENDCHAR
STARTCHAR braceright
ENCODING 125
SWIDTH 440 0
DWIDTH 6 0
BBX 6 16 0 -3
BITMAP
F8
08
08
10
20
40
38
40
20
10
08
08
04
04
84
F8
ENDCHAR
STARTCHAR asciitilde
ENCODING 126
SWIDTH 402 0
DWIDTH 6 0
BBX 5 2 0 6
BITMAP
48
B0
ENDCHAR
STARTCHAR nonbreakingspace
ENCODING 160
SWIDTH 375 0
DWIDTH 5 0
BBX 1 1 0 0
BITMAP
00
ENDCHAR
STARTCHAR exclamdown
ENCODING 161
SWIDTH 149 0
DWIDTH 2 0
BBX 2 9 0 0
BITMAP
C0
00
00
80
80
80
80
80
80
ENDCHAR
STARTCHAR cent
ENCODING 162
SWIDTH 449 0
DWIDTH 6 0
BBX 6 9 0 -1
BITMAP
20
20
78
98
90
90
50
7C
10
ENDCHAR
STARTCHAR sterling
ENCODING 163
SWIDTH 758 0
DWIDTH 11 0
BBX 10 10 0 0
BITMAP
03C0
0440
0400
0400
3F00
0800
0800
0800
FE00
E100
ENDCHAR
STARTCHAR currency
ENCODING 164
SWIDTH 618 0
DWIDTH 9 0
BBX 8 7 0 0
BITMAP
DD
22
41
41
22
5E
42
ENDCHAR
STARTCHAR yen
ENCODING 165
SWIDTH 389 0
DWIDTH 5 0
BBX 6 10 0 0
BITMAP
44
48
48
30
10
F0
28
F8
20
20
ENDCHAR
STARTCHAR brokenbar
ENCODING 166
SWIDTH 117 0
DWIDTH 2 0
BBX 1 8 0 0
BITMAP
80
80
80
80
80
80
80
80
ENDCHAR
STARTCHAR section
ENCODING 167
SWIDTH 514 0
DWIDTH 7 0
BBX 7 9 0 0
BITMAP
7C
44
60
5E
82
7E
06
42
3C
ENDCHAR
STARTCHAR dieresis
ENCODING 168
SWIDTH 397 0
DWIDTH 6 0
BBX 4 1 1 6
BITMAP
B0
ENDCHAR
STARTCHAR copyright
ENCODING 169
SWIDTH 667 0
DWIDTH 9 0
BBX 9 8 0 0
BITMAP
1C00
6300
5D00
A480
A080
A080
5F80
3E00
ENDCHAR
STARTCHAR ordfeminine
ENCODING 170
SWIDTH 266 0
DWIDTH 4 0
BBX 3 4 0 3
BITMAP
40
20
E0
60
ENDCHAR
STARTCHAR guillemotleft
ENCODING 171
SWIDTH 755 0
DWIDTH 11 0
BBX 10 7 0 0
BITMAP
0040
0580
0A00
3400
4800
F780
1C00
ENDCHAR
STARTCHAR logicalnot
ENCODING 172
SWIDTH 369 0
DWIDTH 5 0
BBX 5 2 0 4
BITMAP
78
88
ENDCHAR
STARTCHAR hyphen_
ENCODING 173
SWIDTH 375 0
DWIDTH 5 0
BBX 5 1 0 3
BITMAP
F8
ENDCHAR
STARTCHAR registered
ENCODING 174
SWIDTH 708 0
DWIDTH 10 0
BBX 9 8 0 0
BITMAP
3E00
4300
7E80
9280
9C80
5C80
6300
1C00
ENDCHAR
STARTCHAR macron
ENCODING 175
SWIDTH 287 0
DWIDTH 4 0
BBX 4 2 0 6
BITMAP
70
80
ENDCHAR
STARTCHAR degree
ENCODING 176
SWIDTH 254 0
DWIDTH 4 0
BBX 3 4 0 4
BITMAP
60
A0
A0
60
ENDCHAR
STARTCHAR plusminus
ENCODING 177
SWIDTH 459 0
DWIDTH 6 0
BBX 6 7 0 0
BITMAP
20
20
10
FC
10
18
64
ENDCHAR
STARTCHAR twosuperior
ENCODING 178
SWIDTH 296 0
DWIDTH 4 0
BBX 4 5 0 3
BITMAP
20
60
20
20
F0
ENDCHAR
STARTCHAR threesuperior
ENCODING 179
SWIDTH 204 0
DWIDTH 3 0
BBX 3 5 0 4
BITMAP
C0
40
C0
20
E0
ENDCHAR
STARTCHAR acute
ENCODING 180
SWIDTH 180 0
DWIDTH 3 0
BBX 2 2 0 6
BITMAP
40
C0
ENDCHAR
STARTCHAR mu
ENCODING 181
SWIDTH 501 0
DWIDTH 7 0
BBX 7 8 0 -1
BITMAP
80
84
84
84
C4
CC
B2
80
ENDCHAR
STARTCHAR paragraph
ENCODING 182
SWIDTH 413 0
DWIDTH 6 0
BBX 5 7 0 0
BITMAP
78
F8
F8
18
18
18
18
ENDCHAR
STARTCHAR periodcentered
ENCODING 183
SWIDTH 212 0
DWIDTH 3 0
BBX 1 2 1 2
BITMAP
80
80
ENDCHAR
STARTCHAR cedilla
ENCODING 184
SWIDTH 445 0
DWIDTH 6 0
BBX 4 4 2 -4
BITMAP
80
60
10
F0
ENDCHAR
STARTCHAR onesuperior
ENCODING 185
SWIDTH 197 0
DWIDTH 3 0
BBX 3 5 0 3
BITMAP
60
40
C0
40
40
ENDCHAR
STARTCHAR ordmasculine
ENCODING 186
SWIDTH 254 0
DWIDTH 4 0
BBX 3 4 0 4
BITMAP
60
A0
A0
60
ENDCHAR
STARTCHAR guillemotright
ENCODING 187
SWIDTH 659 0
DWIDTH 9 0
BBX 9 7 0 0
BITMAP
1800
C600
3D80
0900
1200
2C00
D000
ENDCHAR
STARTCHAR onequarter
ENCODING 188
SWIDTH 626 0
DWIDTH 9 0
BBX 8 11 0 0
BITMAP
08
08
28
30
F0
50
58
29
29
27
41
ENDCHAR
STARTCHAR onehalf
ENCODING 189
SWIDTH 566 0
DWIDTH 8 0
BBX 7 11 0 -1
BITMAP
28
28
28
70
B4
5A
52
22
32
2E
40
ENDCHAR
STARTCHAR threequarters
ENCODING 190
SWIDTH 566 0
DWIDTH 8 0
BBX 8 11 0 -1
BITMAP
08
C8
68
50
B8
78
19
1A
26
22
21
ENDCHAR
STARTCHAR questiondown
ENCODING 191
SWIDTH 272 0
DWIDTH 4 0
BBX 4 10 0 0
BITMAP
80
00
00
00
E0
20
40
80
80
70
ENDCHAR
STARTCHAR Agrave
ENCODING 192
SWIDTH 562 0
DWIDTH 8 0
BBX 8 13 0 0
BITMAP
10
08
18
64
44
82
82
82
7A
86
82
43
42
ENDCHAR
STARTCHAR Aacute
ENCODING 193
SWIDTH 562 0
DWIDTH 8 0
BBX 8 13 0 0
BITMAP
10
20
18
64
44
82
82
82
7A
86
82
43
42
ENDCHAR
STARTCHAR Acircumflex
ENCODING 194
SWIDTH 562 0
DWIDTH 8 0
BBX 8 13 0 0
BITMAP
10
28
58
64
44
82
82
82
7A
86
82
43
42
ENDCHAR
STARTCHAR Atilde
ENCODING 195
SWIDTH 562 0
DWIDTH 8 0
BBX 8 13 0 0
BITMAP
24
58
18
64
44
82
82
82
7A
86
82
43
42
ENDCHAR
STARTCHAR Adieresis
ENCODING 196
SWIDTH 562 0
DWIDTH 8 0
BBX 8 12 0 0
BITMAP
2C
18
64
44
82
82
82
7A
86
82
43
42
ENDCHAR
STARTCHAR Aring
ENCODING 197
SWIDTH 562 0
DWIDTH 8 0
BBX 8 13 0 0
BITMAP
10
28
18
64
44
82
82
82
7A
86
82
43
42
ENDCHAR
STARTCHAR AE
ENCODING 198
SWIDTH 960 0
DWIDTH 13 0
BBX 13 11 0 0
BITMAP
1800
6400
45F0
8308
8300
8318
7BE0
8500
8200
4100
43F8
ENDCHAR
STARTCHAR Ccedilla
ENCODING 199
SWIDTH 515 0
DWIDTH 7 0
BBX 7 13 0 -4
BITMAP
1C
28
40
80
80
80
80
40
7E
20
30
08
38
ENDCHAR
STARTCHAR Egrave
ENCODING 200
SWIDTH 524 0
DWIDTH 7 0
BBX 7 11 0 0
BITMAP
10
08
7C
80
80
84
F8
80
80
80
7E
ENDCHAR
STARTCHAR Eacute
ENCODING 201
SWIDTH 524 0
DWIDTH 7 0
BBX 7 11 0 0
BITMAP
10
10
7C
80
80
84
F8
80
80
80
7E
ENDCHAR
STARTCHAR Ecircumflex
ENCODING 202
SWIDTH 524 0
DWIDTH 7 0
BBX 7 12 0 0
BITMAP
18
18
24
7C
80
80
84
F8
80
80
80
7E
ENDCHAR
STARTCHAR Edieresis
ENCODING 203
SWIDTH 524 0
DWIDTH 7 0
BBX 7 10 0 0
BITMAP
28
7C
80
80
84
F8
80
80
80
7E
ENDCHAR
STARTCHAR Igrave
ENCODING 204
SWIDTH 167 0
DWIDTH 2 0
BBX 2 11 0 0
BITMAP
80
40
00
80
80
80
40
40
40
40
40
ENDCHAR
STARTCHAR Iacute
ENCODING 205
SWIDTH 167 0
DWIDTH 2 0
BBX 2 11 0 0
BITMAP
40
80
00
80
80
80
40
40
40
40
40
ENDCHAR
STARTCHAR Icircumflex
ENCODING 206
SWIDTH 167 0
DWIDTH 2 0
BBX 4 12 -1 0
BITMAP
20
70
90
00
40
40
40
20
20
20
20
20
ENDCHAR
STARTCHAR Idieresis
ENCODING 207
SWIDTH 167 0
DWIDTH 2 0
BBX 3 9 -1 0
BITMAP
A0
40
40
40
20
20
20
20
20
ENDCHAR
STARTCHAR Eth
ENCODING 208
SWIDTH 741 0
DWIDTH 10 0
BBX 10 9 0 0
BITMAP
7800
8E00
0980
0880
1F40
0840
0440
0880
1F00
ENDCHAR
STARTCHAR Ntilde
ENCODING 209
SWIDTH 609 0
DWIDTH 9 0
BBX 8 10 0 0
BITMAP
22
3C
80
82
42
41
A1
A1
91
8E
ENDCHAR
STARTCHAR Ograve
ENCODING 210
SWIDTH 609 0
DWIDTH 9 0
BBX 8 10 0 0
BITMAP
10
08
00
30
4C
82
81
81
41
3E
ENDCHAR
STARTCHAR Oacute
ENCODING 211
SWIDTH 609 0
DWIDTH 9 0
BBX 8 10 0 0
BITMAP
08
10
00
30
4C
82
81
81
41
3E
ENDCHAR
STARTCHAR Ocircumflex
ENCODING 212
SWIDTH 609 0
DWIDTH 9 0
BBX 8 10 0 0
BITMAP
10
38
48
30
4C
82
81
81
41
3E
ENDCHAR
STARTCHAR Otilde
ENCODING 213
SWIDTH 609 0
DWIDTH 9 0
BBX 8 10 0 0
BITMAP
24
58
00
30
4C
82
81
81
41
3E
ENDCHAR
STARTCHAR Odieresis
ENCODING 214
SWIDTH 609 0
DWIDTH 9 0
BBX 8 9 0 0
BITMAP
34
00
30
4C
82
81
81
41
3E
ENDCHAR
STARTCHAR multiply
ENCODING 215
SWIDTH 448 0
DWIDTH 6 0
BBX 4 4 1 1
BITMAP
90
A0
40
A0
ENDCHAR
STARTCHAR Oslash
ENCODING 216
SWIDTH 609 0
DWIDTH 9 0
BBX 8 10 0 -1
BITMAP
04
04
38
4C
8A
91
91
51
3E
20
ENDCHAR
STARTCHAR Ugrave
ENCODING 217
SWIDTH 571 0
DWIDTH 8 0
BBX 8 10 0 0
BITMAP
10
08
40
84
82
82
82
42
47
39
ENDCHAR
STARTCHAR Uacute
ENCODING 218
SWIDTH 571 0
DWIDTH 8 0
BBX 8 10 0 0
BITMAP
08
10
40
84
82
82
82
42
47
39
ENDCHAR
STARTCHAR Ucircumflex
ENCODING 219
SWIDTH 571 0
DWIDTH 8 0
BBX 8 12 0 0
BITMAP
08
1C
24
00
40
84
82
82
82
42
47
39
ENDCHAR
STARTCHAR Udieresis
ENCODING 220
SWIDTH 571 0
DWIDTH 8 0
BBX 8 9 0 0
BITMAP
3C
40
84
82
82
82
42
47
39
ENDCHAR
STARTCHAR Yacute
ENCODING 221
SWIDTH 403 0
DWIDTH 6 0
BBX 5 12 0 0
BITMAP
08
10
20
88
88
48
38
10
10
10
10
10
ENDCHAR
STARTCHAR Thorn
ENCODING 222
SWIDTH 497 0
DWIDTH 7 0
BBX 6 11 1 -2
BITMAP
80
80
80
80
E0
98
84
84
F8
80
80
ENDCHAR
STARTCHAR germandbls
ENCODING 223
SWIDTH 590 0
DWIDTH 8 0
BBX 8 12 0 -2
BITMAP
60
98
88
88
78
44
42
41
41
5E
40
40
ENDCHAR
STARTCHAR agrave
ENCODING 224
SWIDTH 505 0
DWIDTH 7 0
BBX 7 9 0 0
BITMAP
20
10
30
08
04
7C
82
82
7C
ENDCHAR
STARTCHAR aacute
ENCODING 225
SWIDTH 505 0
DWIDTH 7 0
BBX 7 10 0 0
BITMAP
10
10
20
30
08
04
7C
82
82
7C
ENDCHAR
STARTCHAR acircumflex
ENCODING 226
SWIDTH 505 0
DWIDTH 7 0
BBX 7 10 0 0
BITMAP
10
28
48
30
08
04
7C
82
82
7C
ENDCHAR
STARTCHAR atilde
ENCODING 227
SWIDTH 505 0
DWIDTH 7 0
BBX 7 10 0 0
BITMAP
24
58
00
30
08
04
7C
82
82
7C
ENDCHAR
STARTCHAR adieresis
ENCODING 228
SWIDTH 505 0
DWIDTH 7 0
BBX 7 9 0 0
BITMAP
28
00
30
08
04
7C
82
82
7C
ENDCHAR
STARTCHAR aring
ENCODING 229
SWIDTH 505 0
DWIDTH 7 0
BBX 7 9 0 0
BITMAP
38
28
30
08
04
7C
82
82
7C
ENDCHAR
STARTCHAR ae
ENCODING 230
SWIDTH 881 0
DWIDTH 12 0
BBX 12 7 0 0
BITMAP
31C0
0A40
0620
7CC0
8300
8200
7DF0
ENDCHAR
STARTCHAR ccedilla
ENCODING 231
SWIDTH 449 0
DWIDTH 6 0
BBX 6 10 0 -4
BITMAP
78
88
80
80
40
7C
20
38
08
38
ENDCHAR
STARTCHAR egrave
ENCODING 232
SWIDTH 515 0
DWIDTH 7 0
BBX 7 10 0 0
BITMAP
20
10
00
78
88
88
F0
80
40
3E
ENDCHAR
STARTCHAR eacute
ENCODING 233
SWIDTH 515 0
DWIDTH 7 0
BBX 7 10 0 0
BITMAP
10
20
00
78
88
88
F0
80
40
3E
ENDCHAR
STARTCHAR ecircumflex
ENCODING 234
SWIDTH 515 0
DWIDTH 7 0
BBX 7 10 0 0
BITMAP
10
38
4C
78
88
88
F0
80
40
3E
ENDCHAR
STARTCHAR edieresis
ENCODING 235
SWIDTH 515 0
DWIDTH 7 0
BBX 7 8 0 0
BITMAP
28
78
88
88
F0
80
40
3E
ENDCHAR
STARTCHAR igrave
ENCODING 236
SWIDTH 174 0
DWIDTH 2 0
BBX 2 8 0 0
BITMAP
C0
00
40
40
40
40
40
40
ENDCHAR
STARTCHAR iacute
ENCODING 237
SWIDTH 174 0
DWIDTH 2 0
BBX 2 9 0 0
BITMAP
40
80
00
40
40
40
40
40
40
ENDCHAR
STARTCHAR icircumflex
ENCODING 238
SWIDTH 174 0
DWIDTH 2 0
BBX 4 10 -1 0
BITMAP
20
50
90
00
20
20
20
20
20
20
ENDCHAR
STARTCHAR idieresis
ENCODING 239
SWIDTH 174 0
DWIDTH 2 0
BBX 4 8 -1 0
BITMAP
F0
00
20
20
20
20
20
20
ENDCHAR
STARTCHAR eth
ENCODING 240
SWIDTH 407 0
DWIDTH 6 0
BBX 6 7 0 0
BITMAP
E8
3C
08
78
84
88
78
ENDCHAR
STARTCHAR ntilde
ENCODING 241
SWIDTH 459 0
DWIDTH 6 0
BBX 6 9 0 0
BITMAP
48
B8
00
38
C8
84
84
44
44
ENDCHAR
STARTCHAR ograve
ENCODING 242
SWIDTH 487 0
DWIDTH 7 0
BBX 6 8 0 0
BITMAP
10
08
38
44
84
84
84
78
ENDCHAR
STARTCHAR oacute
ENCODING 243
SWIDTH 487 0
DWIDTH 7 0
BBX 6 9 0 0
BITMAP
10
30
00
38
44
84
84
84
78
ENDCHAR
STARTCHAR ocircumflex
ENCODING 244
SWIDTH 487 0
DWIDTH 7 0
BBX 6 9 0 0
BITMAP
10
28
48
38
44
84
84
84
78
ENDCHAR
STARTCHAR otilde
ENCODING 245
SWIDTH 487 0
DWIDTH 7 0
BBX 6 8 0 0
BITMAP
24
58
38
44
84
84
84
78
ENDCHAR
STARTCHAR odieresis
ENCODING 246
SWIDTH 487 0
DWIDTH 7 0
BBX 6 7 0 0
BITMAP
28
38
44
84
84
84
78
ENDCHAR
STARTCHAR divide
ENCODING 247
SWIDTH 335 0
DWIDTH 5 0
BBX 4 4 0 1
BITMAP
20
70
80
20
ENDCHAR
STARTCHAR oslash
ENCODING 248
SWIDTH 487 0
DWIDTH 7 0
BBX 6 6 0 0
BITMAP
38
4C
94
A4
A4
78
ENDCHAR
STARTCHAR ugrave
ENCODING 249
SWIDTH 501 0
DWIDTH 7 0
BBX 7 9 0 1
BITMAP
20
10
00
80
84
84
84
4C
32
ENDCHAR
STARTCHAR uacute
ENCODING 250
SWIDTH 501 0
DWIDTH 7 0
BBX 7 9 0 1
BITMAP
10
10
20
80
84
84
84
4C
32
ENDCHAR
STARTCHAR ucircumflex
ENCODING 251
SWIDTH 501 0
DWIDTH 7 0
BBX 7 9 0 1
BITMAP
10
28
48
80
84
84
84
4C
32
ENDCHAR
STARTCHAR udieresis
ENCODING 252
SWIDTH 501 0
DWIDTH 7 0
BBX 7 7 0 1
BITMAP
68
80
84
84
84
4C
32
ENDCHAR
STARTCHAR yacute
ENCODING 253
SWIDTH 487 0
DWIDTH 7 0
BBX 7 17 0 -7
BITMAP
10
30
00
00
84
84
84
44
46
3A
02
02
02
04
44
64
18
ENDCHAR
STARTCHAR thorn
ENCODING 254
SWIDTH 520 0
DWIDTH 7 0
BBX 7 10 0 -3
BITMAP
80
80
7C
82
82
FE
80
80
80
80
ENDCHAR
STARTCHAR ydieresis
ENCODING 255
SWIDTH 487 0
DWIDTH 7 0
BBX 7 15 0 -7
BITMAP
68
00
84
84
84
44
46
3A
02
02
02
04
44
64
18
ENDCHAR
STARTCHAR Amacron
ENCODING 256
SWIDTH 562 0
DWIDTH 8 0
BBX 8 13 0 0
BITMAP
18
60
18
64
44
82
82
82
7A
86
82
43
42
ENDCHAR
STARTCHAR amacron
ENCODING 257
SWIDTH 505 0
DWIDTH 7 0
BBX 7 10 0 0
BITMAP
18
60
00
30
08
04
7C
82
82
7C
ENDCHAR
STARTCHAR Abreve
ENCODING 258
SWIDTH 562 0
DWIDTH 8 0
BBX 8 13 0 0
BITMAP
28
10
18
64
44
82
82
82
7A
86
82
43
42
ENDCHAR
STARTCHAR abreve
ENCODING 259
SWIDTH 505 0
DWIDTH 7 0
BBX 7 9 0 0
BITMAP
28
10
30
08
04
7C
82
82
7C
ENDCHAR
STARTCHAR Aogonek
ENCODING 260
SWIDTH 562 0
DWIDTH 8 0
BBX 8 13 0 -2
BITMAP
18
64
44
82
82
82
7A
86
82
43
42
04
07
ENDCHAR
STARTCHAR aogonek
ENCODING 261
SWIDTH 505 0
DWIDTH 7 0
BBX 7 9 0 -2
BITMAP
30
08
04
7C
82
82
7C
08
06
ENDCHAR
STARTCHAR Cacute
ENCODING 262
SWIDTH 515 0
DWIDTH 7 0
BBX 7 12 0 0
BITMAP
08
10
00
1C
28
40
80
80
80
80
40
7E
ENDCHAR
STARTCHAR cacute
ENCODING 263
SWIDTH 449 0
DWIDTH 6 0
BBX 6 10 0 0
BITMAP
10
18
20
00
38
48
80
80
40
7C
ENDCHAR
STARTCHAR Ccircumflex
ENCODING 264
SWIDTH 515 0
DWIDTH 7 0
BBX 7 12 0 0
BITMAP
10
38
4C
1C
28
40
80
80
80
80
40
7E
ENDCHAR
STARTCHAR ccircumflex
ENCODING 265
SWIDTH 449 0
DWIDTH 6 0
BBX 6 10 0 0
BITMAP
10
38
48
00
38
48
80
80
40
7C
ENDCHAR
STARTCHAR Cdotaccent
ENCODING 266
SWIDTH 515 0
DWIDTH 7 0
BBX 7 11 0 0
BITMAP
10
10
1C
28
40
80
80
80
80
40
7E
ENDCHAR
STARTCHAR cdotaccent
ENCODING 267
SWIDTH 449 0
DWIDTH 6 0
BBX 6 8 0 0
BITMAP
20
30
38
48
80
80
40
7C
ENDCHAR
STARTCHAR Ccaron
ENCODING 268
SWIDTH 515 0
DWIDTH 7 0
BBX 7 12 0 0
BITMAP
04
38
00
1C
28
40
80
80
80
80
40
7E
ENDCHAR
STARTCHAR ccaron
ENCODING 269
SWIDTH 449 0
DWIDTH 6 0
BBX 6 9 0 0
BITMAP
08
70
00
38
48
80
80
40
7C
ENDCHAR
STARTCHAR Dcaron
ENCODING 270
SWIDTH 741 0
DWIDTH 10 0
BBX 10 11 0 0
BITMAP
0200
1C00
7800
8E00
0980
0880
0840
0840
0440
0880
1F00
ENDCHAR
STARTCHAR dcaron
ENCODING 271
SWIDTH 582 0
DWIDTH 8 0
BBX 8 10 0 0
BITMAP
09
05
05
04
76
4E
86
86
4A
70
ENDCHAR
STARTCHAR Dcroat
ENCODING 272
SWIDTH 741 0
DWIDTH 10 0
BBX 10 9 0 0
BITMAP
7800
8E00
0980
0880
1C40
0A40
0440
0880
1F00
ENDCHAR
STARTCHAR dcroat
ENCODING 273
SWIDTH 524 0
DWIDTH 7 0
BBX 7 10 0 0
BITMAP
04
04
1E
04
7E
C6
86
86
4A
70
ENDCHAR
STARTCHAR Emacron
ENCODING 274
SWIDTH 524 0
DWIDTH 7 0
BBX 7 11 0 0
BITMAP
18
60
7C
80
80
84
F8
80
80
80
7E
ENDCHAR
STARTCHAR emacron
ENCODING 275
SWIDTH 515 0
DWIDTH 7 0
BBX 7 10 0 0
BITMAP
18
60
00
78
88
88
F0
80
40
3E
ENDCHAR
STARTCHAR Ebreve
ENCODING 276
SWIDTH 524 0
DWIDTH 7 0
BBX 7 11 0 0
BITMAP
28
10
7C
80
80
84
F8
80
80
80
7E
ENDCHAR
STARTCHAR ebreve
ENCODING 277
SWIDTH 515 0
DWIDTH 7 0
BBX 7 9 0 0
BITMAP
28
10
78
88
88
F0
80
40
3E
ENDCHAR
STARTCHAR Edotaccent
ENCODING 278
SWIDTH 524 0
DWIDTH 7 0
BBX 7 11 0 0
BITMAP
10
10
7C
80
80
84
F8
80
80
80
7E
ENDCHAR
STARTCHAR edotaccent
ENCODING 279
SWIDTH 515 0
DWIDTH 7 0
BBX 7 10 0 0
BITMAP
20
30
00
78
88
88
F0
80
40
3E
ENDCHAR
STARTCHAR Eogonek
ENCODING 280
SWIDTH 524 0
DWIDTH 7 0
BBX 7 11 0 -2
BITMAP
7C
80
80
84
F8
80
80
80
7E
10
0C
ENDCHAR
STARTCHAR eogonek
ENCODING 281
SWIDTH 515 0
DWIDTH 7 0
BBX 7 9 0 -2
BITMAP
78
88
88
F0
80
40
3E
10
0C
ENDCHAR
STARTCHAR Ecaron
ENCODING 282
SWIDTH 524 0
DWIDTH 7 0
BBX 7 11 0 0
BITMAP
08
3C
7C
80
80
84
F8
80
80
80
7E
ENDCHAR
STARTCHAR ecaron
ENCODING 283
SWIDTH 515 0
DWIDTH 7 0
BBX 7 10 0 0
BITMAP
08
3C
00
78
88
88
F0
80
40
3E
ENDCHAR
STARTCHAR Gcircumflex
ENCODING 284
SWIDTH 571 0
DWIDTH 8 0
BBX 8 12 0 -1
BITMAP
04
0E
12
00
1E
20
40
9E
82
42
3E
01
ENDCHAR
STARTCHAR gcircumflex
ENCODING 285
SWIDTH 366 0
DWIDTH 5 0
BBX 7 17 -2 -7
BITMAP
08
14
24
00
0C
14
22
22
26
1A
02
02
02
82
82
62
1C
ENDCHAR
STARTCHAR Gbreve
ENCODING 286
SWIDTH 571 0
DWIDTH 8 0
BBX 8 10 0 -1
BITMAP
28
10
1E
20
40
9E
82
42
3E
01
ENDCHAR
STARTCHAR gbreve
ENCODING 287
SWIDTH 366 0
DWIDTH 5 0
BBX 7 15 -2 -7
BITMAP
14
08
0C
14
22
22
26
1A
02
02
02
82
82
62
1C
ENDCHAR
STARTCHAR Gdotaccent
ENCODING 288
SWIDTH 571 0
DWIDTH 8 0
BBX 8 10 0 -1
BITMAP
08
08
1E
20
40
9E
82
42
3E
01
ENDCHAR
STARTCHAR gdotaccent
ENCODING 289
SWIDTH 366 0
DWIDTH 5 0
BBX 7 15 -2 -7
BITMAP
08
08
0C
14
22
22
26
1A
02
02
02
82
82
62
1C
ENDCHAR
STARTCHAR Gcommaaccent
ENCODING 290
SWIDTH 571 0
DWIDTH 8 0
BBX 8 11 0 -4
BITMAP
1E
20
40
9E
82
42
3E
01
10
08
10
ENDCHAR
STARTCHAR gcommaaccent
ENCODING 291
SWIDTH 366 0
DWIDTH 5 0
BBX 7 19 -2 -7
BITMAP
08
08
08
00
00
00
0C
14
22
22
26
1A
02
02
02
82
82
62
1C
ENDCHAR
STARTCHAR Hcircumflex
ENCODING 292
SWIDTH 524 0
DWIDTH 7 0
BBX 7 13 0 0
BITMAP
10
18
24
00
86
84
84
84
5C
E2
42
42
42
ENDCHAR
STARTCHAR hcircumflex
ENCODING 293
SWIDTH 427 0
DWIDTH 6 0
BBX 5 11 0 0
BITMAP
10
B8
C8
80
80
70
88
48
48
48
48
ENDCHAR
STARTCHAR hbar
ENCODING 295
SWIDTH 427 0
DWIDTH 6 0
BBX 6 10 -1 0
BITMAP
80
40
E0
50
38
44
24
24
24
24
ENDCHAR
STARTCHAR Itilde
ENCODING 296
SWIDTH 167 0
DWIDTH 2 0
BBX 5 10 -1 0
BITMAP
88
F0
40
40
40
20
20
20
20
20
ENDCHAR
STARTCHAR itilde
ENCODING 297
SWIDTH 174 0
DWIDTH 2 0
BBX 5 9 -1 0
BITMAP
E8
90
00
20
20
20
20
20
20
ENDCHAR
STARTCHAR imacron
ENCODING 299
SWIDTH 174 0
DWIDTH 2 0
BBX 4 8 -1 0
BITMAP
F0
00
20
20
20
20
20
20
ENDCHAR
STARTCHAR Ibreve
ENCODING 300
SWIDTH 167 0
DWIDTH 2 0
BBX 3 11 0 0
BITMAP
A0
40
00
80
80
80
40
40
40
40
40
ENDCHAR
STARTCHAR ibreve
ENCODING 301
SWIDTH 174 0
DWIDTH 2 0
BBX 2 8 0 0
BITMAP
C0
00
40
40
40
40
40
40
ENDCHAR
STARTCHAR Iogonek
ENCODING 302
SWIDTH 167 0
DWIDTH 2 0
BBX 3 10 0 -2
BITMAP
80
80
80
40
40
40
40
40
80
E0
ENDCHAR
STARTCHAR iogonek
ENCODING 303
SWIDTH 174 0
DWIDTH 2 0
BBX 3 10 0 -2
BITMAP
80
00
40
40
40
40
40
40
80
E0
ENDCHAR
STARTCHAR Idotaccent
ENCODING 304
SWIDTH 167 0
DWIDTH 2 0
BBX 2 11 0 0
BITMAP
80
80
00
80
80
80
40
40
40
40
40
ENDCHAR
STARTCHAR dotlessi
ENCODING 305
SWIDTH 174 0
DWIDTH 2 0
BBX 1 6 1 0
BITMAP
80
80
80
80
80
80
ENDCHAR
STARTCHAR Jcircumflex
ENCODING 308
SWIDTH 439 0
DWIDTH 6 0
BBX 7 13 0 0
BITMAP
08
14
26
08
08
08
04
04
84
84
44
24
18
ENDCHAR
STARTCHAR jcircumflex
ENCODING 309
SWIDTH 200 0
DWIDTH 3 0
BBX 5 16 -2 -6
BITMAP
10
28
48
00
10
10
10
10
08
08
08
88
88
48
68
38
ENDCHAR
STARTCHAR Kcommaaccent
ENCODING 310
SWIDTH 468 0
DWIDTH 7 0
BBX 6 12 0 -4
BITMAP
98
B0
A0
40
40
A0
58
44
00
20
10
10
ENDCHAR
STARTCHAR kcommaaccent
ENCODING 311
SWIDTH 403 0
DWIDTH 6 0
BBX 6 13 0 -4
BITMAP
80
80
80
90
A0
40
40
60
9C
00
20
20
20
ENDCHAR
STARTCHAR Lacute
ENCODING 313
SWIDTH 346 0
DWIDTH 5 0
BBX 5 11 0 0
BITMAP
10
20
00
80
80
80
80
80
80
80
78
ENDCHAR
STARTCHAR lacute
ENCODING 314
SWIDTH 120 0
DWIDTH 2 0
BBX 2 11 0 0
BITMAP
40
80
00
80
80
80
80
80
80
80
80
ENDCHAR
STARTCHAR Lcommaaccent
ENCODING 315
SWIDTH 346 0
DWIDTH 5 0
BBX 5 12 0 -4
BITMAP
80
80
80
80
80
80
80
78
00
20
20
20
ENDCHAR
STARTCHAR lcommaaccent
ENCODING 316
SWIDTH 120 0
DWIDTH 2 0
BBX 1 12 0 -4
BITMAP
80
80
80
80
80
80
80
80
00
80
80
80
ENDCHAR
STARTCHAR Lcaron
ENCODING 317
SWIDTH 346 0
DWIDTH 5 0
BBX 5 10 0 0
BITMAP
20
20
A0
80
80
80
80
80
80
78
ENDCHAR
STARTCHAR lcaron
ENCODING 318
SWIDTH 222 0
DWIDTH 3 0
BBX 3 10 0 0
BITMAP
20
20
A0
80
80
80
80
80
80
80
ENDCHAR
STARTCHAR Ldot
ENCODING 319
SWIDTH 346 0
DWIDTH 5 0
BBX 5 8 0 0
BITMAP
80
80
80
80
A0
A0
80
78
ENDCHAR
STARTCHAR ldot
ENCODING 320
SWIDTH 333 0
DWIDTH 5 0
BBX 4 8 0 0
BITMAP
80
80
80
80
B0
A0
80
80
ENDCHAR
STARTCHAR Lslash
ENCODING 321
SWIDTH 346 0
DWIDTH 5 0
BBX 5 8 0 0
BITMAP
40
40
40
40
60
C0
40
38
ENDCHAR
STARTCHAR lslash
ENCODING 322
SWIDTH 120 0
DWIDTH 2 0
BBX 4 8 -1 0
BITMAP
40
40
60
70
C0
40
40
40
ENDCHAR
STARTCHAR Nacute
ENCODING 323
SWIDTH 609 0
DWIDTH 9 0
BBX 8 10 0 0
BITMAP
08
10
80
82
42
41
A1
A1
91
8E
ENDCHAR
STARTCHAR nacute
ENCODING 324
SWIDTH 459 0
DWIDTH 6 0
BBX 6 10 0 0
BITMAP
10
20
00
00
38
C8
84
84
44
44
ENDCHAR
STARTCHAR Ncommaaccent
ENCODING 325
SWIDTH 609 0
DWIDTH 9 0
BBX 8 12 0 -4
BITMAP
80
82
42
41
A1
A1
91
8E
00
10
08
08
ENDCHAR
STARTCHAR ncommaaccent
ENCODING 326
SWIDTH 459 0
DWIDTH 6 0
BBX 6 10 0 -4
BITMAP
38
C8
84
84
44
44
00
20
10
10
ENDCHAR
STARTCHAR Ncaron
ENCODING 327
SWIDTH 609 0
DWIDTH 9 0
BBX 8 11 0 0
BITMAP
04
38
00
80
82
42
41
A1
A1
91
8E
ENDCHAR
STARTCHAR ncaron
ENCODING 328
SWIDTH 459 0
DWIDTH 6 0
BBX 6 9 0 0
BITMAP
08
70
00
38
C8
84
84
44
44
ENDCHAR
STARTCHAR napostrophe
ENCODING 329
SWIDTH 459 0
DWIDTH 6 0
BBX 6 10 0 0
BITMAP
40
40
40
00
38
C8
84
84
44
44
ENDCHAR
STARTCHAR Omacron
ENCODING 332
SWIDTH 609 0
DWIDTH 9 0
BBX 8 10 0 0
BITMAP
1C
20
00
30
4C
82
81
81
41
3E
ENDCHAR
STARTCHAR omacron
ENCODING 333
SWIDTH 487 0
DWIDTH 7 0
BBX 6 8 0 0
BITMAP
18
60
38
44
84
84
84
78
ENDCHAR
STARTCHAR Obreve
ENCODING 334
SWIDTH 609 0
DWIDTH 9 0
BBX 8 9 0 0
BITMAP
24
18
30
4C
82
81
81
41
3E
ENDCHAR
STARTCHAR obreve
ENCODING 335
SWIDTH 487 0
DWIDTH 7 0
BBX 6 8 0 0
BITMAP
50
20
38
44
84
84
84
78
ENDCHAR
STARTCHAR Ohungarumlaut
ENCODING 336
SWIDTH 609 0
DWIDTH 9 0
BBX 8 10 0 0
BITMAP
14
28
00
30
4C
82
81
81
41
3E
ENDCHAR
STARTCHAR ohungarumlaut
ENCODING 337
SWIDTH 487 0
DWIDTH 7 0
BBX 6 8 0 0
BITMAP
28
50
38
44
84
84
84
78
ENDCHAR
STARTCHAR OE
ENCODING 338
SWIDTH 848 0
DWIDTH 12 0
BBX 12 7 0 0
BITMAP
37E0
4C00
8400
87E0
8400
4400
3BF0
ENDCHAR
STARTCHAR oe
ENCODING 339
SWIDTH 875 0
DWIDTH 12 0
BBX 12 8 0 -1
BITMAP
0180
3A40
4440
84C0
8500
8600
7990
00E0
ENDCHAR
STARTCHAR Racute
ENCODING 340
SWIDTH 579 0
DWIDTH 8 0
BBX 8 13 0 -1
BITMAP
08
0C
10
78
86
42
46
38
20
30
28
26
01
ENDCHAR
STARTCHAR racute
ENCODING 341
SWIDTH 346 0
DWIDTH 5 0
BBX 5 9 0 0
BITMAP
10
20
00
F8
80
80
80
40
40
ENDCHAR
STARTCHAR Rcommaaccent
ENCODING 342
SWIDTH 579 0
DWIDTH 8 0
BBX 8 13 0 -4
BITMAP
78
86
42
46
38
20
30
28
26
01
10
08
08
ENDCHAR
STARTCHAR rcommaaccent
ENCODING 343
SWIDTH 346 0
DWIDTH 5 0
BBX 5 10 0 -4
BITMAP
F8
80
80
80
40
40
00
20
20
20
ENDCHAR
STARTCHAR Rcaron
ENCODING 344
SWIDTH 579 0
DWIDTH 8 0
BBX 8 13 0 -1
BITMAP
04
38
00
78
86
42
46
38
20
30
28
26
01
ENDCHAR
STARTCHAR rcaron
ENCODING 345
SWIDTH 346 0
DWIDTH 5 0
BBX 5 9 0 0
BITMAP
10
70
00
F8
80
80
80
40
40
ENDCHAR
STARTCHAR Sacute
ENCODING 346
SWIDTH 627 0
DWIDTH 9 0
BBX 8 12 0 0
BITMAP
08
08
10
00
3E
21
20
18
06
81
41
3F
ENDCHAR
STARTCHAR sacute
ENCODING 347
SWIDTH 514 0
DWIDTH 7 0
BBX 7 10 0 0
BITMAP
08
10
00
00
78
88
70
0E
82
7C
ENDCHAR
STARTCHAR Scircumflex
ENCODING 348
SWIDTH 627 0
DWIDTH 9 0
BBX 8 12 0 0
BITMAP
08
14
24
00
3E
21
20
18
06
81
41
3F
ENDCHAR
STARTCHAR scircumflex
ENCODING 349
SWIDTH 514 0
DWIDTH 7 0
BBX 7 10 0 0
BITMAP
10
28
4C
00
78
88
70
0E
82
7C
ENDCHAR
STARTCHAR Scedilla
ENCODING 350
SWIDTH 627 0
DWIDTH 9 0
BBX 8 12 0 -4
BITMAP
3E
21
20
18
06
81
41
3F
20
18
04
1C
ENDCHAR
STARTCHAR scedilla
ENCODING 351
SWIDTH 514 0
DWIDTH 7 0
BBX 7 10 0 -4
BITMAP
78
88
70
0E
82
7C
20
30
08
38
ENDCHAR
STARTCHAR Scaron
ENCODING 352
SWIDTH 627 0
DWIDTH 9 0
BBX 8 11 0 0
BITMAP
04
1C
00
3E
21
20
18
06
81
41
3F
ENDCHAR
STARTCHAR scaron
ENCODING 353
SWIDTH 514 0
DWIDTH 7 0
BBX 7 9 0 0
BITMAP
08
3C
00
78
88
70
0E
82
7C
ENDCHAR
STARTCHAR Tcommaaccent
ENCODING 354
SWIDTH 581 0
DWIDTH 8 0
BBX 9 12 0 -4
BITMAP
FF80
0800
0800
0800
0800
0400
0400
0400
0000
0400
0400
0400
ENDCHAR
STARTCHAR tcommaaccent
ENCODING 355
SWIDTH 328 0
DWIDTH 5 0
BBX 5 13 0 -4
BITMAP
20
20
20
F8
20
20
20
20
20
00
40
20
20
ENDCHAR
STARTCHAR Tcaron
ENCODING 356
SWIDTH 581 0
DWIDTH 8 0
BBX 9 11 0 0
BITMAP
0400
3800
0000
FF80
0800
0800
0800
0800
0400
0400
0400
ENDCHAR
STARTCHAR tcaron
ENCODING 357
SWIDTH 431 0
DWIDTH 6 0
BBX 6 10 0 0
BITMAP
04
24
24
20
F8
20
20
20
20
20
ENDCHAR
STARTCHAR Utilde
ENCODING 360
SWIDTH 571 0
DWIDTH 8 0
BBX 8 10 0 0
BITMAP
24
5E
40
84
82
82
82
42
47
39
ENDCHAR
STARTCHAR utilde
ENCODING 361
SWIDTH 501 0
DWIDTH 7 0
BBX 7 9 0 1
BITMAP
24
58
00
80
84
84
84
4C
32
ENDCHAR
STARTCHAR Umacron
ENCODING 362
SWIDTH 571 0
DWIDTH 8 0
BBX 8 10 0 0
BITMAP
18
44
40
84
82
82
82
42
47
39
ENDCHAR
STARTCHAR umacron
ENCODING 363
SWIDTH 501 0
DWIDTH 7 0
BBX 7 8 0 1
BITMAP
30
48
80
84
84
84
4C
32
ENDCHAR
STARTCHAR Ubreve
ENCODING 364
SWIDTH 571 0
DWIDTH 8 0
BBX 8 9 0 0
BITMAP
28
50
84
82
82
82
42
47
39
ENDCHAR
STARTCHAR ubreve
ENCODING 365
SWIDTH 501 0
DWIDTH 7 0
BBX 7 7 0 1
BITMAP
50
A0
84
84
84
4C
32
ENDCHAR
STARTCHAR Uring
ENCODING 366
SWIDTH 571 0
DWIDTH 8 0
BBX 8 10 0 0
BITMAP
18
28
50
84
82
82
82
42
47
39
ENDCHAR
STARTCHAR uring
ENCODING 367
SWIDTH 501 0
DWIDTH 7 0
BBX 7 7 0 1
BITMAP
30
A8
94
84
84
4C
32
ENDCHAR
STARTCHAR Uhungarumlaut
ENCODING 368
SWIDTH 571 0
DWIDTH 8 0
BBX 8 10 0 0
BITMAP
18
28
40
84
82
82
82
42
47
39
ENDCHAR
STARTCHAR uhungarumlaut
ENCODING 369
SWIDTH 501 0
DWIDTH 7 0
BBX 7 9 0 1
BITMAP
18
28
00
80
84
84
84
4C
32
ENDCHAR
STARTCHAR Uogonek
ENCODING 370
SWIDTH 571 0
DWIDTH 8 0
BBX 7 9 1 -2
BITMAP
88
84
84
84
84
86
4A
34
06
ENDCHAR
STARTCHAR uogonek
ENCODING 371
SWIDTH 501 0
DWIDTH 7 0
BBX 7 9 0 -2
BITMAP
80
84
84
84
44
4C
36
08
06
ENDCHAR
STARTCHAR Wcircumflex
ENCODING 372
SWIDTH 703 0
DWIDTH 10 0
BBX 10 12 0 0
BITMAP
0400
0E00
1200
0000
0000
8100
8080
8080
8880
8840
5480
6300
ENDCHAR
STARTCHAR wcircumflex
ENCODING 373
SWIDTH 656 0
DWIDTH 9 0
BBX 9 10 0 0
BITMAP
0800
1400
2600
0000
8000
8100
8880
8880
4C80
7300
ENDCHAR
STARTCHAR Ycircumflex
ENCODING 374
SWIDTH 403 0
DWIDTH 6 0
BBX 5 12 0 0
BITMAP
30
38
48
88
88
48
38
10
10
10
10
10
ENDCHAR
STARTCHAR ycircumflex
ENCODING 375
SWIDTH 487 0
DWIDTH 7 0
BBX 7 17 0 -7
BITMAP
10
28
48
00
84
84
84
44
46
3A
02
02
02
04
44
64
18
ENDCHAR
STARTCHAR Ydieresis
ENCODING 376
SWIDTH 403 0
DWIDTH 6 0
BBX 5 10 0 0
BITMAP
78
88
88
48
38
10
10
10
10
10
ENDCHAR
STARTCHAR Zacute
ENCODING 377
SWIDTH 571 0
DWIDTH 8 0
BBX 8 12 0 0
BITMAP
08
10
00
70
88
04
04
1E
68
10
20
3F
ENDCHAR
STARTCHAR zacute
ENCODING 378
SWIDTH 459 0
DWIDTH 6 0
BBX 6 10 0 0
BITMAP
10
20
00
F0
08
10
78
20
44
78
ENDCHAR
STARTCHAR Zdotaccent
ENCODING 379
SWIDTH 571 0
DWIDTH 8 0
BBX 8 11 0 0
BITMAP
10
10
70
88
04
04
1E
68
10
20
3F
ENDCHAR
STARTCHAR zdotaccent
ENCODING 380
SWIDTH 459 0
DWIDTH 6 0
BBX 6 10 0 0
BITMAP
10
10
00
F0
08
10
78
20
44
78
ENDCHAR
STARTCHAR Zcaron
ENCODING 381
SWIDTH 571 0
DWIDTH 8 0
BBX 8 11 0 0
BITMAP
08
38
70
88
04
04
1E
68
10
20
3F
ENDCHAR
STARTCHAR zcaron
ENCODING 382
SWIDTH 459 0
DWIDTH 6 0
BBX 6 10 0 0
BITMAP
10
78
00
F0
08
10
78
20
44
78
ENDCHAR
STARTCHAR florin
ENCODING 402
SWIDTH 376 0
DWIDTH 5 0
BBX 7 14 -1 -4
BITMAP
0C
12
20
20
20
30
6C
20
20
20
20
A0
60
20
ENDCHAR
STARTCHAR AEacute
ENCODING 508
SWIDTH 960 0
DWIDTH 13 0
BBX 13 12 0 0
BITMAP
0100
1900
6600
45F0
8308
8300
8318
7BE0
8500
8200
4100
43F8
ENDCHAR
STARTCHAR aeacute
ENCODING 509
SWIDTH 881 0
DWIDTH 12 0
BBX 12 10 0 0
BITMAP
0100
0200
0400
31C0
0A40
0620
7CC0
8300
8200
7DF0
ENDCHAR
STARTCHAR Oslashacute
ENCODING 510
SWIDTH 609 0
DWIDTH 9 0
BBX 8 11 0 -1
BITMAP
08
10
00
34
4C
8A
89
91
51
3E
20
ENDCHAR
STARTCHAR oslashacute
ENCODING 511
SWIDTH 487 0
DWIDTH 7 0
BBX 6 8 0 0
BITMAP
18
20
3C
44
8C
94
A4
78
ENDCHAR
STARTCHAR Scommaaccent
ENCODING 536
SWIDTH 627 0
DWIDTH 9 0
BBX 8 12 0 -4
BITMAP
3E
21
20
18
06
81
41
3F
00
10
08
08
ENDCHAR
STARTCHAR scommaaccent
ENCODING 537
SWIDTH 514 0
DWIDTH 7 0
BBX 7 10 0 -4
BITMAP
78
88
70
0E
82
7C
00
10
10
10
ENDCHAR
STARTCHAR circumflex
ENCODING 710
SWIDTH 375 0
DWIDTH 5 0
BBX 3 3 1 7
BITMAP
40
A0
A0
ENDCHAR
STARTCHAR caron
ENCODING 711
SWIDTH 375 0
DWIDTH 5 0
BBX 3 2 1 7
BITMAP
20
E0
ENDCHAR
STARTCHAR breve
ENCODING 728
SWIDTH 224 0
DWIDTH 3 0
BBX 3 1 0 6
BITMAP
E0
ENDCHAR
STARTCHAR dotaccent
ENCODING 729
SWIDTH 152 0
DWIDTH 2 0
BBX 1 2 1 6
BITMAP
80
80
ENDCHAR
STARTCHAR ring
ENCODING 730
SWIDTH 333 0
DWIDTH 5 0
BBX 3 2 1 6
BITMAP
60
E0
ENDCHAR
STARTCHAR ogonek
ENCODING 731
SWIDTH 254 0
DWIDTH 4 0
BBX 3 3 0 -2
BITMAP
40
80
60
ENDCHAR
STARTCHAR tilde
ENCODING 732
SWIDTH 402 0
DWIDTH 6 0
BBX 5 2 0 6
BITMAP
48
B0
ENDCHAR
STARTCHAR hungarumlaut
ENCODING 733
SWIDTH 264 0
DWIDTH 4 0
BBX 4 2 0 6
BITMAP
50
A0
ENDCHAR
STARTCHAR Wgrave
ENCODING 7808
SWIDTH 703 0
DWIDTH 10 0
BBX 10 10 0 0
BITMAP
0800
0400
0000
8100
8080
8080
8880
8840
5480
6300
ENDCHAR
STARTCHAR wgrave
ENCODING 7809
SWIDTH 656 0
DWIDTH 9 0
BBX 9 8 0 0
BITMAP
0800
0400
8000
8100
8880
8880
4C80
7300
ENDCHAR
STARTCHAR Wacute
ENCODING 7810
SWIDTH 703 0
DWIDTH 10 0
BBX 10 10 0 0
BITMAP
0400
0800
0000
8100
8080
8080
8880
8840
5480
6300
ENDCHAR
STARTCHAR wacute
ENCODING 7811
SWIDTH 656 0
DWIDTH 9 0
BBX 9 9 0 0
BITMAP
0400
0800
0000
8000
8100
8880
8880
4C80
7300
ENDCHAR
STARTCHAR Wdieresis
ENCODING 7812
SWIDTH 703 0
DWIDTH 10 0
BBX 10 9 0 0
BITMAP
1E00
0000
8100
8080
8080
8880
8840
5480
6300
ENDCHAR
STARTCHAR wdieresis
ENCODING 7813
SWIDTH 656 0
DWIDTH 9 0
BBX 9 7 0 0
BITMAP
1400
8000
8100
8880
8880
4C80
7300
ENDCHAR
STARTCHAR Ygrave
ENCODING 7922
SWIDTH 403 0
DWIDTH 6 0
BBX 5 12 0 0
BITMAP
20
10
00
88
88
48
38
10
10
10
10
10
ENDCHAR
STARTCHAR ygrave
ENCODING 7923
SWIDTH 487 0
DWIDTH 7 0
BBX 7 15 0 -7
BITMAP
10
08
84
84
84
44
46
3A
02
02
02
04
44
64
18
ENDCHAR
STARTCHAR endash
ENCODING 8211
SWIDTH 287 0
DWIDTH 4 0
BBX 4 1 0 3
BITMAP
F0
ENDCHAR
STARTCHAR emdash
ENCODING 8212
SWIDTH 512 0
DWIDTH 7 0
BBX 7 1 0 3
BITMAP
FE
ENDCHAR
STARTCHAR quoteleft
ENCODING 8216
SWIDTH 102 0
DWIDTH 1 0
BBX 1 3 0 7
BITMAP
80
80
80
ENDCHAR
STARTCHAR quoteright
ENCODING 8217
SWIDTH 102 0
DWIDTH 1 0
BBX 1 3 0 7
BITMAP
80
80
80
ENDCHAR
STARTCHAR quotesinglbase
ENCODING 8218
SWIDTH 102 0
DWIDTH 1 0
BBX 1 3 0 0
BITMAP
80
80
80
ENDCHAR
STARTCHAR quotedblleft
ENCODING 8220
SWIDTH 234 0
DWIDTH 3 0
BBX 3 4 0 7
BITMAP
A0
A0
A0
60
ENDCHAR
STARTCHAR quotedblright
ENCODING 8221
SWIDTH 234 0
DWIDTH 3 0
BBX 3 4 0 7
BITMAP
A0
A0
A0
60
ENDCHAR
STARTCHAR quotedblbase
ENCODING 8222
SWIDTH 341 0
DWIDTH 5 0
BBX 3 5 1 -2
BITMAP
40
A0
A0
A0
A0
ENDCHAR
STARTCHAR dagger
ENCODING 8224
SWIDTH 375 0
DWIDTH 5 0
BBX 5 9 0 0
BITMAP
40
20
20
F8
20
20
20
20
20
ENDCHAR
STARTCHAR daggerdbl
ENCODING 8225
SWIDTH 375 0
DWIDTH 5 0
BBX 7 10 -1 0
BITMAP
10
10
10
7E
90
FE
10
10
10
10
ENDCHAR
STARTCHAR bullet
ENCODING 8226
SWIDTH 341 0
DWIDTH 5 0
BBX 3 3 1 2
BITMAP
60
E0
40
ENDCHAR
STARTCHAR ellipsis
ENCODING 8230
SWIDTH 612 0
DWIDTH 9 0
BBX 7 3 1 0
BITMAP
92
96
B2
ENDCHAR
STARTCHAR guilsinglleft
ENCODING 8249
SWIDTH 487 0
DWIDTH 7 0
BBX 6 6 0 0
BITMAP
04
08
30
40
E0
1C
ENDCHAR
STARTCHAR guilsinglright
ENCODING 8250
SWIDTH 403 0
DWIDTH 6 0
BBX 6 6 0 0
BITMAP
C0
3C
08
10
20
C0
ENDCHAR
STARTCHAR fraction
ENCODING 8260
SWIDTH 309 0
DWIDTH 4 0
BBX 4 11 0 0
BITMAP
10
10
10
10
20
20
20
40
40
80
80
ENDCHAR
STARTCHAR Euro
ENCODING 8364
SWIDTH 741 0
DWIDTH 10 0
BBX 10 10 0 0
BITMAP
0180
0280
0C00
FF00
1000
1F00
E000
2000
1000
0FC0
ENDCHAR
STARTCHAR trademark
ENCODING 8482
SWIDTH 1116 0
DWIDTH 16 0
BBX 15 9 0 0
BITMAP
E082
1FC2
0846
087A
0842
0842
0442
0442
0442
ENDCHAR
STARTCHAR minus
ENCODING 8722
SWIDTH 287 0
DWIDTH 4 0
BBX 4 1 0 3
BITMAP
F0
ENDCHAR
STARTCHAR commaaccent
ENCODING 63171
SWIDTH 375 0
DWIDTH 5 0
BBX 1 3 2 -4
BITMAP
80
80
80
ENDCHAR
STARTCHAR fi
ENCODING 64257
SWIDTH 551 0
DWIDTH 8 0
BBX 6 10 0 0
BITMAP
18
24
48
40
48
68
B4
24
14
14
ENDCHAR
STARTCHAR fl
ENCODING 64258
SWIDTH 723 0
DWIDTH 10 0
BBX 6 10 0 0
BITMAP
18
24
48
48
48
68
B8
28
18
18
ENDCHAR
STARTCHAR .notdef
ENCODING -1
SWIDTH 375 0
DWIDTH 5 0
BBX 1 1 0 0
BITMAP
00
ENDCHAR
STARTCHAR .null
ENCODING -1
SWIDTH 0 0
DWIDTH 0 0
BBX 1 1 0 0
BITMAP
00
ENDCHAR
STARTCHAR nonmarkingreturn
ENCODING -1
SWIDTH 375 0
DWIDTH 5 0
BBX 1 1 0 0
BITMAP
00
ENDCHAR
ENDFONT
